<svg width="92" height="92" viewBox="0 0 92 92" fill="none" xmlns="http://www.w3.org/2000/svg">
<path fill-rule="evenodd" clip-rule="evenodd" d="M51.576 9.23783L15.5382 12.8123C11.4244 13.2164 8.86841 16.5838 9.23865 19.9641L13.0175 54.0282L13.0182 54.0346C13.2593 56.1447 13.8334 57.5748 14.5548 58.4163C15.1233 59.0794 16.1273 59.7994 18.4448 59.7994V68.9996C13.8189 68.9996 10.1181 67.376 7.57062 64.4047C5.17684 61.6126 4.22412 58.1194 3.87674 55.0694L3.87524 55.056L0.0940808 20.971C-0.878565 12.1188 5.80978 4.52476 14.6322 3.65682L50.6723 0.0821593C59.3656 -0.771884 67.6594 5.1123 68.6368 14.008L68.6643 14.2585V18.3986H59.4645V14.7996C58.9837 11.5548 55.729 8.83093 51.576 9.23783ZM38.7337 32.1989C35.1513 32.1989 32.2011 35.1492 32.2011 38.732V76.2667C32.2011 79.8495 35.1513 82.7998 38.7337 82.7998H76.346C79.9403 82.7998 82.8454 79.851 82.7996 76.3265L82.7988 76.2667L82.7992 38.732C82.7992 35.1492 79.8489 32.1989 76.2665 32.1989H38.7337ZM23.0012 38.732C23.0012 30.0683 30.0703 22.9987 38.7337 22.9987H76.2665C84.93 22.9987 91.999 30.0683 91.999 38.732V76.2393C92.0944 84.9464 84.987 92 76.346 92H38.7337C30.0703 92 23.0012 84.9305 23.0012 76.2667V38.732Z" fill="black"/>
<path d="M52.9007 68.9996V45.9992L71.3004 57.4994L52.9007 68.9996Z" fill="black"/>
</svg>
