<?xml version="1.0" encoding="utf-8"?>
<!-- Generator: Adobe Illustrator 21.0.2, SVG Export Plug-In . SVG Version: 6.00 Build 0)  -->
<svg version="1.1" id="Layer_1" xmlns="http://www.w3.org/2000/svg" xmlns:xlink="http://www.w3.org/1999/xlink" x="0px" y="0px"
	 viewBox="0 0 78 69" style="enable-background:new 0 0 78 69;" xml:space="preserve">
<path d="M8.5,48c0.5,0.5,1.2,0.8,1.9,0.8c0.7,0,1.4-0.3,1.9-0.8l1.7-1.7v20.1c0,0.7,0.3,1.4,0.8,1.9c0.5,0.5,1.2,0.8,1.9,0.8h44.4
	c0.7,0,1.4-0.3,1.9-0.8c0.5-0.5,0.8-1.2,0.8-1.9V46.3l1.7,1.7c0.5,0.5,1.2,0.8,1.9,0.8c0.7,0,1.4-0.3,1.9-0.8l7.7-7.6
	c0.5-0.5,0.8-1.2,0.8-1.9c0-0.7-0.3-1.4-0.8-1.9L63.8,23.4V6.2c0-0.7-0.3-1.4-0.8-1.9c-0.5-0.5-1.2-0.8-1.9-0.8h-8.4
	c-0.7,0-1.4,0.3-1.9,0.8C50.3,4.8,50,5.5,50,6.2v3.5l-9.1-9C40.4,0.3,39.7,0,39,0c-0.7,0-1.4,0.3-1.9,0.8L0.8,36.6
	C0.3,37.1,0,37.8,0,38.5c0,0.7,0.3,1.4,0.8,1.9L8.5,48z M55.5,8.9h2.9V18l-2.9-2.9V8.9z M39,6.4l32.4,32l-3.8,3.8l-4.4-4.4
	c-0.4-0.4-0.9-0.6-1.4-0.7c-0.5-0.1-1.1-0.1-1.6,0.2c-0.5,0.2-0.9,0.5-1.2,1c-0.3,0.4-0.5,1-0.5,1.5v23.9h-39V39.8
	c0-0.5-0.2-1-0.5-1.5c-0.3-0.4-0.7-0.8-1.2-1c-0.5-0.2-1-0.3-1.6-0.2c-0.5,0.1-1,0.4-1.4,0.7l-4.4,4.4l-3.8-3.8L39,6.4z"/>
<path d="M32.6,56.4h12.7c0.7,0,1.4-0.3,1.9-0.8c0.5-0.5,0.8-1.2,0.8-1.9V41.2c0-0.7-0.3-1.4-0.8-1.9c-0.5-0.5-1.2-0.8-1.9-0.8H32.6
	c-0.7,0-1.4,0.3-1.9,0.8c-0.5,0.5-0.8,1.2-0.8,1.9v12.6c0,0.7,0.3,1.4,0.8,1.9C31.2,56.1,31.9,56.4,32.6,56.4z M35.4,43.8h7.3v7.2
	h-7.3V43.8z"/>
</svg>
