<?xml version="1.0" encoding="utf-8"?>
<!-- Generator: Adobe Illustrator 21.0.2, SVG Export Plug-In . SVG Version: 6.00 Build 0)  -->
<svg version="1.1" id="Layer_1" xmlns="http://www.w3.org/2000/svg" xmlns:xlink="http://www.w3.org/1999/xlink" x="0px" y="0px"
	 viewBox="0 0 78 62" style="enable-background:new 0 0 78 62;" xml:space="preserve">
<path d="M66.4,12.8c-1.1-1-2.5-1.6-4-1.6h-6.6V2.8c0-0.7-0.3-1.4-0.8-2C54.5,0.3,53.8,0,53,0h-28c-0.7,0-1.4,0.3-2,0.8
	c-0.5,0.5-0.8,1.2-0.8,2v8.4h-6.7c-1.5,0-2.9,0.6-4,1.6l-9.9,9.9c-0.5,0.5-0.9,1.1-1.2,1.8C0.1,25.2,0,26,0,26.7v17.8
	c0,1.5,0.6,2.9,1.6,4c1.1,1.1,2.5,1.6,4,1.6h16.7v8.4c0,0.7,0.3,1.4,0.8,2c0.5,0.5,1.2,0.8,2,0.8h28c0.7,0,1.4-0.3,2-0.8
	c0.5-0.5,0.8-1.2,0.8-2v-8.4h16.6c1.5,0,2.9-0.6,4-1.6s1.6-2.5,1.6-4V26.7c0-1.5-0.6-2.9-1.6-4L66.4,12.8z M50.3,55.7H27.9v-13h22.4
	V55.7z M72.4,44.6H55.8V40c0-0.7-0.3-1.4-0.8-2c-0.5-0.5-1.2-0.8-2-0.8h-28c-0.7,0-1.4,0.3-2,0.8c-0.5,0.5-0.8,1.2-0.8,2v4.6
	l-16.7,0l0-17.9l10-10h6.7v5.9c0,0.7,0.3,1.4,0.8,2c0.5,0.5,1.2,0.8,2,0.8c0.7,0,1.4-0.3,2-0.8c0.5-0.5,0.8-1.2,0.8-2v-17h22.4v17
	c0,0.7,0.3,1.4,0.8,2c0.5,0.5,1.2,0.8,2,0.8s1.4-0.3,2-0.8c0.5-0.5,0.8-1.2,0.8-2v-5.9l6.6,0l10,10L72.4,44.6z"/>
<path d="M64.1,37.6c1.5,0,2.8-1.2,2.8-2.8c0-1.5-1.2-2.8-2.8-2.8c-1.5,0-2.8,1.2-2.8,2.8C61.3,36.4,62.5,37.6,64.1,37.6z"/>
</svg>
