<svg width="28" height="30" viewBox="0 0 28 30" fill="none" xmlns="http://www.w3.org/2000/svg">
<path fill-rule="evenodd" clip-rule="evenodd" d="M15.1076 1.38074C16.3637 2.50959 16.92 4.0529 17.0772 5.12707L17.0921 5.22915V11.1364H23.1334L23.2287 11.1485C24.4169 11.2993 25.3653 11.7216 26.075 12.3585C26.7765 12.9879 27.1522 13.7434 27.3475 14.4203C27.5407 15.0898 27.5681 15.7162 27.5533 16.1596C27.5507 16.2379 27.5467 16.3119 27.5418 16.3809C28.1367 17.5577 28.076 18.7802 27.7898 19.7401C27.6262 20.289 27.3814 20.7851 27.1074 21.1943C27.0385 21.2972 26.9636 21.4007 26.8831 21.5022C27.0186 22.7656 26.5246 23.8118 26.0116 24.513C25.7297 24.8983 25.428 25.2031 25.1835 25.4216C24.9775 26.3896 24.4132 27.3563 23.7664 28.095C22.9477 29.0301 21.6433 30 20.0647 30H7.93331L0 27.4182V14.5072L4.18509 12.8728L8.1745 6.3814V0.610146L9.25246 0.309458C11.7828 -0.39636 13.7559 0.165983 15.1076 1.38074ZM11.147 2.90799C12.1117 2.849 12.7041 3.16518 13.0944 3.51591C13.6787 4.04103 14.0107 4.83677 14.1196 5.4457V14.0385H22.9335C23.5465 14.1299 23.8763 14.3271 24.0634 14.4951C24.2677 14.6784 24.4029 14.9182 24.4863 15.2071C24.5718 15.5034 24.5907 15.8133 24.5823 16.0649C24.5783 16.1866 24.5682 16.2843 24.5601 16.3463C24.5561 16.377 24.5527 16.3981 24.551 16.408C24.5508 16.4093 24.5506 16.4104 24.5504 16.4113L24.4316 16.9912L24.7731 17.4913C25.0591 17.9101 25.0918 18.4053 24.9357 18.9291C24.8578 19.1903 24.7403 19.4258 24.6195 19.6061C24.5072 19.7737 24.4308 19.8373 24.4319 19.8386C24.4321 19.8387 24.4332 19.838 24.4355 19.8365L23.4976 20.447L23.8566 21.4984C24.0275 21.9989 23.8886 22.4218 23.5927 22.8262C23.443 23.0308 23.2715 23.1997 23.1337 23.3184C23.0665 23.3763 23.0118 23.4184 22.9783 23.4431C22.9626 23.4547 22.952 23.4622 22.9473 23.4654L22.2941 23.8906V24.6672C22.2941 24.9162 22.073 25.5628 21.5069 26.2094C20.9438 26.8525 20.3904 27.0979 20.0647 27.0979H8.41568L2.97254 25.3265V16.472L6.21882 15.2042L11.147 7.18523V2.90799ZM22.9456 23.4666L22.9473 23.4654C22.9452 23.4669 22.944 23.4677 22.9456 23.4666Z" fill="black"/>
</svg>
