<svg width="96" height="96" viewBox="0 0 96 96" fill="none" xmlns="http://www.w3.org/2000/svg">
<path fill-rule="evenodd" clip-rule="evenodd" d="M43.842 9.74268C25.0095 9.74268 9.74268 25.0095 9.74268 43.842C9.74268 62.6746 25.0095 77.9414 43.842 77.9414C62.6746 77.9414 77.9414 62.6746 77.9414 43.842C77.9414 25.0095 62.6746 9.74268 43.842 9.74268ZM0 43.842C0 19.6288 19.6288 0 43.842 0C68.0553 0 87.6841 19.6288 87.6841 43.842C87.6841 54.1937 84.0965 63.7074 78.0968 71.2077L96 89.1109L89.1109 96L71.2077 78.0968C63.7074 84.0965 54.1937 87.6841 43.842 87.6841C19.6288 87.6841 0 68.0553 0 43.842Z" fill="black"/>
</svg>
