<?xml version="1.0" encoding="utf-8"?>
<!-- Generator: Adobe Illustrator 21.0.2, SVG Export Plug-In . SVG Version: 6.00 Build 0)  -->
<svg version="1.1" id="Layer_1" xmlns="http://www.w3.org/2000/svg" xmlns:xlink="http://www.w3.org/1999/xlink" x="0px" y="0px"
	 viewBox="0 0 328 12" style="enable-background:new 0 0 328 12;" xml:space="preserve">
<style type="text/css">
	.st0{fill:#FFFFFF;}
</style>
<path d="M303,3c0-1.5,1.2-2.7,2.7-2.7h16.7c1.5,0,2.7,1.2,2.7,2.7v6c0,1.5-1.2,2.7-2.7,2.7h-16.7c-1.5,0-2.7-1.2-2.7-2.7V3z"/>
<path class="st0" d="M326,4v4c0.8-0.3,1.3-1.1,1.3-2S326.8,4.3,326,4z"/>
<path d="M305,3.7c0-0.7,0.6-1.3,1.3-1.3h15.3c0.7,0,1.3,0.6,1.3,1.3v4.7c0,0.7-0.6,1.3-1.3,1.3h-15.3c-0.7,0-1.3-0.6-1.3-1.3V3.7z"
	/>
<path d="M290.3,2.6c2.2,0,4.4,0.8,6,2.3c0.1,0.1,0.3,0.1,0.4,0l1.2-1.1c0.1-0.1,0.1-0.1,0.1-0.2c0-0.1,0-0.2-0.1-0.2
	c-4.2-4-10.9-4-15.1,0c-0.1,0.1-0.1,0.1-0.1,0.2c0,0.1,0,0.2,0.1,0.2l1.2,1.1c0.1,0.1,0.3,0.1,0.4,0C286,3.4,288.1,2.6,290.3,2.6z
	 M290.3,6.3c1.2,0,2.4,0.5,3.3,1.3c0.1,0.1,0.3,0.1,0.4,0l1.2-1.2c0.1-0.1,0.1-0.1,0.1-0.2s0-0.2-0.1-0.2c-2.8-2.6-7-2.6-9.8,0
	c-0.1,0.1-0.1,0.1-0.1,0.2s0,0.2,0.1,0.2l1.2,1.2c0.1,0.1,0.3,0.1,0.4,0C287.9,6.8,289.1,6.3,290.3,6.3z M292.7,9
	c0,0.1,0,0.2-0.1,0.2l-2,2c-0.1,0.1-0.1,0.1-0.2,0.1c-0.1,0-0.2,0-0.2-0.1l-2-2C288,9.2,288,9.1,288,9s0-0.2,0.1-0.2
	c1.3-1.1,3.2-1.1,4.5,0C292.6,8.9,292.7,8.9,292.7,9z"/>
<path d="M277.7,1.7c0-0.6-0.4-1-1-1h-1c-0.6,0-1,0.4-1,1v8.7c0,0.6,0.4,1,1,1h1c0.6,0,1-0.4,1-1V1.7z M271,3h1c0.6,0,1,0.4,1,1v6.3
	c0,0.6-0.4,1-1,1h-1c-0.6,0-1-0.4-1-1V4C270,3.4,270.4,3,271,3z M267.3,5.3h-1c-0.6,0-1,0.4-1,1v4c0,0.6,0.4,1,1,1h1
	c0.6,0,1-0.4,1-1v-4C268.3,5.8,267.9,5.3,267.3,5.3z M263.7,8.3c0-0.6-0.4-1-1-1h-1c-0.6,0-1,0.4-1,1v2c0,0.6,0.4,1,1,1h1
	c0.6,0,1-0.4,1-1V8.3z"/>
<path d="M4,11.3c2.7,0,4.3-2.1,4.3-5.7c0-1.3-0.3-2.5-0.7-3.3C6.8,0.9,5.6,0.2,4.1,0.2c-2.3,0-3.9,1.5-3.9,3.7c0,2,1.5,3.5,3.5,3.5
	c1.2,0,2.2-0.6,2.7-1.6h0c0,0,0,0,0,0c0,0,0.1,0,0.1,0c0,2.4-0.9,3.9-2.5,3.9c-0.9,0-1.6-0.5-1.9-1.3H0.3C0.6,10.1,2.1,11.3,4,11.3z
	 M4.1,5.9C2.8,5.9,2,5,2,3.8c0-1.2,0.9-2.1,2.1-2.1s2.1,0.9,2.1,2.1C6.2,5,5.3,5.9,4.1,5.9z"/>
<path d="M11.3,9.9c0.7,0,1.2-0.5,1.2-1.2c0-0.7-0.5-1.2-1.2-1.2c-0.7,0-1.2,0.5-1.2,1.2C10.1,9.4,10.6,9.9,11.3,9.9z M11.3,4.4
	c0.7,0,1.2-0.5,1.2-1.1c0-0.7-0.5-1.2-1.2-1.2c-0.7,0-1.2,0.5-1.2,1.2C10.1,3.9,10.6,4.4,11.3,4.4z"/>
<path d="M14.5,3.5L14.5,3.5l1.8,0v0c0-1.1,0.7-1.8,1.9-1.8c1,0,1.8,0.7,1.8,1.6c0,0.7-0.4,1.3-1.8,2.8l-3.5,3.6V11h7.3V9.4h-4.7V9.3
	l2.2-2.2c1.8-1.8,2.4-2.7,2.4-3.8c0-1.8-1.5-3-3.6-3C16,0.2,14.5,1.5,14.5,3.5z"/>
<path d="M24.1,11h2l4.5-9V0.4h-7.4V2h5.4v0.1L24.1,11z"/>
</svg>
